<svg width="150" height="148" viewBox="0 0 150 148" fill="none" xmlns="http://www.w3.org/2000/svg">
<path fill-rule="evenodd" clip-rule="evenodd" d="M1 148C1.55228 148 2 147.552 2 147C2 146.448 1.55228 146 1 146C0.447715 146 0 146.448 0 147C0 147.552 0.447715 148 1 148Z" fill="black" fill-opacity="0.16"/>
<path fill-rule="evenodd" clip-rule="evenodd" d="M17 148C17.5523 148 18 147.552 18 147C18 146.448 17.5523 146 17 146C16.4477 146 16 146.448 16 147C16 147.552 16.4477 148 17 148Z" fill="black" fill-opacity="0.16"/>
<path fill-rule="evenodd" clip-rule="evenodd" d="M33 148C33.5523 148 34 147.552 34 147C34 146.448 33.5523 146 33 146C32.4477 146 32 146.448 32 147C32 147.552 32.4477 148 33 148Z" fill="black" fill-opacity="0.16"/>
<path fill-rule="evenodd" clip-rule="evenodd" d="M49 148C49.5523 148 50 147.552 50 147C50 146.448 49.5523 146 49 146C48.4477 146 48 146.448 48 147C48 147.552 48.4477 148 49 148Z" fill="black" fill-opacity="0.16"/>
<path fill-rule="evenodd" clip-rule="evenodd" d="M67 148C67.5523 148 68 147.552 68 147C68 146.448 67.5523 146 67 146C66.4477 146 66 146.448 66 147C66 147.552 66.4477 148 67 148Z" fill="black" fill-opacity="0.16"/>
<path fill-rule="evenodd" clip-rule="evenodd" d="M83 148C83.5523 148 84 147.552 84 147C84 146.448 83.5523 146 83 146C82.4477 146 82 146.448 82 147C82 147.552 82.4477 148 83 148Z" fill="black" fill-opacity="0.16"/>
<path fill-rule="evenodd" clip-rule="evenodd" d="M99 148C99.5523 148 100 147.552 100 147C100 146.448 99.5523 146 99 146C98.4477 146 98 146.448 98 147C98 147.552 98.4477 148 99 148Z" fill="black" fill-opacity="0.16"/>
<path fill-rule="evenodd" clip-rule="evenodd" d="M115 148C115.552 148 116 147.552 116 147C116 146.448 115.552 146 115 146C114.448 146 114 146.448 114 147C114 147.552 114.448 148 115 148Z" fill="black" fill-opacity="0.16"/>
<path fill-rule="evenodd" clip-rule="evenodd" d="M132 148C132.552 148 133 147.552 133 147C133 146.448 132.552 146 132 146C131.448 146 131 146.448 131 147C131 147.552 131.448 148 132 148Z" fill="black" fill-opacity="0.16"/>
<path fill-rule="evenodd" clip-rule="evenodd" d="M149 148C149.552 148 150 147.552 150 147C150 146.448 149.552 146 149 146C148.448 146 148 146.448 148 147C148 147.552 148.448 148 149 148Z" fill="black" fill-opacity="0.16"/>
<path fill-rule="evenodd" clip-rule="evenodd" d="M1 132C1.55228 132 2 131.552 2 131C2 130.448 1.55228 130 1 130C0.447715 130 0 130.448 0 131C0 131.552 0.447715 132 1 132Z" fill="black" fill-opacity="0.16"/>
<path fill-rule="evenodd" clip-rule="evenodd" d="M17 132C17.5523 132 18 131.552 18 131C18 130.448 17.5523 130 17 130C16.4477 130 16 130.448 16 131C16 131.552 16.4477 132 17 132Z" fill="black" fill-opacity="0.16"/>
<path fill-rule="evenodd" clip-rule="evenodd" d="M33 132C33.5523 132 34 131.552 34 131C34 130.448 33.5523 130 33 130C32.4477 130 32 130.448 32 131C32 131.552 32.4477 132 33 132Z" fill="black" fill-opacity="0.16"/>
<path fill-rule="evenodd" clip-rule="evenodd" d="M49 132C49.5523 132 50 131.552 50 131C50 130.448 49.5523 130 49 130C48.4477 130 48 130.448 48 131C48 131.552 48.4477 132 49 132Z" fill="black" fill-opacity="0.16"/>
<path fill-rule="evenodd" clip-rule="evenodd" d="M67 132C67.5523 132 68 131.552 68 131C68 130.448 67.5523 130 67 130C66.4477 130 66 130.448 66 131C66 131.552 66.4477 132 67 132Z" fill="black" fill-opacity="0.16"/>
<path fill-rule="evenodd" clip-rule="evenodd" d="M83 132C83.5523 132 84 131.552 84 131C84 130.448 83.5523 130 83 130C82.4477 130 82 130.448 82 131C82 131.552 82.4477 132 83 132Z" fill="black" fill-opacity="0.16"/>
<path fill-rule="evenodd" clip-rule="evenodd" d="M99 132C99.5523 132 100 131.552 100 131C100 130.448 99.5523 130 99 130C98.4477 130 98 130.448 98 131C98 131.552 98.4477 132 99 132Z" fill="black" fill-opacity="0.16"/>
<path fill-rule="evenodd" clip-rule="evenodd" d="M115 132C115.552 132 116 131.552 116 131C116 130.448 115.552 130 115 130C114.448 130 114 130.448 114 131C114 131.552 114.448 132 115 132Z" fill="black" fill-opacity="0.16"/>
<path fill-rule="evenodd" clip-rule="evenodd" d="M132 132C132.552 132 133 131.552 133 131C133 130.448 132.552 130 132 130C131.448 130 131 130.448 131 131C131 131.552 131.448 132 132 132Z" fill="black" fill-opacity="0.16"/>
<path fill-rule="evenodd" clip-rule="evenodd" d="M149 132C149.552 132 150 131.552 150 131C150 130.448 149.552 130 149 130C148.448 130 148 130.448 148 131C148 131.552 148.448 132 149 132Z" fill="black" fill-opacity="0.16"/>
<path fill-rule="evenodd" clip-rule="evenodd" d="M1 116C1.55228 116 2 115.552 2 115C2 114.448 1.55228 114 1 114C0.447715 114 0 114.448 0 115C0 115.552 0.447715 116 1 116Z" fill="black" fill-opacity="0.16"/>
<path fill-rule="evenodd" clip-rule="evenodd" d="M17 116C17.5523 116 18 115.552 18 115C18 114.448 17.5523 114 17 114C16.4477 114 16 114.448 16 115C16 115.552 16.4477 116 17 116Z" fill="black" fill-opacity="0.16"/>
<path fill-rule="evenodd" clip-rule="evenodd" d="M33 116C33.5523 116 34 115.552 34 115C34 114.448 33.5523 114 33 114C32.4477 114 32 114.448 32 115C32 115.552 32.4477 116 33 116Z" fill="black" fill-opacity="0.16"/>
<path fill-rule="evenodd" clip-rule="evenodd" d="M49 116C49.5523 116 50 115.552 50 115C50 114.448 49.5523 114 49 114C48.4477 114 48 114.448 48 115C48 115.552 48.4477 116 49 116Z" fill="black" fill-opacity="0.16"/>
<path fill-rule="evenodd" clip-rule="evenodd" d="M67 116C67.5523 116 68 115.552 68 115C68 114.448 67.5523 114 67 114C66.4477 114 66 114.448 66 115C66 115.552 66.4477 116 67 116Z" fill="black" fill-opacity="0.16"/>
<path fill-rule="evenodd" clip-rule="evenodd" d="M83 116C83.5523 116 84 115.552 84 115C84 114.448 83.5523 114 83 114C82.4477 114 82 114.448 82 115C82 115.552 82.4477 116 83 116Z" fill="black" fill-opacity="0.16"/>
<path fill-rule="evenodd" clip-rule="evenodd" d="M99 116C99.5523 116 100 115.552 100 115C100 114.448 99.5523 114 99 114C98.4477 114 98 114.448 98 115C98 115.552 98.4477 116 99 116Z" fill="black" fill-opacity="0.16"/>
<path fill-rule="evenodd" clip-rule="evenodd" d="M115 116C115.552 116 116 115.552 116 115C116 114.448 115.552 114 115 114C114.448 114 114 114.448 114 115C114 115.552 114.448 116 115 116Z" fill="black" fill-opacity="0.16"/>
<path fill-rule="evenodd" clip-rule="evenodd" d="M132 116C132.552 116 133 115.552 133 115C133 114.448 132.552 114 132 114C131.448 114 131 114.448 131 115C131 115.552 131.448 116 132 116Z" fill="black" fill-opacity="0.16"/>
<path fill-rule="evenodd" clip-rule="evenodd" d="M149 116C149.552 116 150 115.552 150 115C150 114.448 149.552 114 149 114C148.448 114 148 114.448 148 115C148 115.552 148.448 116 149 116Z" fill="black" fill-opacity="0.16"/>
<path fill-rule="evenodd" clip-rule="evenodd" d="M1 99C1.55228 99 2 98.5523 2 98C2 97.4477 1.55228 97 1 97C0.447715 97 0 97.4477 0 98C0 98.5523 0.447715 99 1 99Z" fill="black" fill-opacity="0.16"/>
<path fill-rule="evenodd" clip-rule="evenodd" d="M17 99C17.5523 99 18 98.5523 18 98C18 97.4477 17.5523 97 17 97C16.4477 97 16 97.4477 16 98C16 98.5523 16.4477 99 17 99Z" fill="black" fill-opacity="0.16"/>
<path fill-rule="evenodd" clip-rule="evenodd" d="M33 99C33.5523 99 34 98.5523 34 98C34 97.4477 33.5523 97 33 97C32.4477 97 32 97.4477 32 98C32 98.5523 32.4477 99 33 99Z" fill="black" fill-opacity="0.16"/>
<path fill-rule="evenodd" clip-rule="evenodd" d="M49 99C49.5523 99 50 98.5523 50 98C50 97.4477 49.5523 97 49 97C48.4477 97 48 97.4477 48 98C48 98.5523 48.4477 99 49 99Z" fill="black" fill-opacity="0.16"/>
<path fill-rule="evenodd" clip-rule="evenodd" d="M67 99C67.5523 99 68 98.5523 68 98C68 97.4477 67.5523 97 67 97C66.4477 97 66 97.4477 66 98C66 98.5523 66.4477 99 67 99Z" fill="black" fill-opacity="0.16"/>
<path fill-rule="evenodd" clip-rule="evenodd" d="M83 99C83.5523 99 84 98.5523 84 98C84 97.4477 83.5523 97 83 97C82.4477 97 82 97.4477 82 98C82 98.5523 82.4477 99 83 99Z" fill="black" fill-opacity="0.16"/>
<path fill-rule="evenodd" clip-rule="evenodd" d="M99 99C99.5523 99 100 98.5523 100 98C100 97.4477 99.5523 97 99 97C98.4477 97 98 97.4477 98 98C98 98.5523 98.4477 99 99 99Z" fill="black" fill-opacity="0.16"/>
<path fill-rule="evenodd" clip-rule="evenodd" d="M115 99C115.552 99 116 98.5523 116 98C116 97.4477 115.552 97 115 97C114.448 97 114 97.4477 114 98C114 98.5523 114.448 99 115 99Z" fill="black" fill-opacity="0.16"/>
<path fill-rule="evenodd" clip-rule="evenodd" d="M132 99C132.552 99 133 98.5523 133 98C133 97.4477 132.552 97 132 97C131.448 97 131 97.4477 131 98C131 98.5523 131.448 99 132 99Z" fill="black" fill-opacity="0.16"/>
<path fill-rule="evenodd" clip-rule="evenodd" d="M149 99C149.552 99 150 98.5523 150 98C150 97.4477 149.552 97 149 97C148.448 97 148 97.4477 148 98C148 98.5523 148.448 99 149 99Z" fill="black" fill-opacity="0.16"/>
<path fill-rule="evenodd" clip-rule="evenodd" d="M1 83C1.55228 83 2 82.5523 2 82C2 81.4477 1.55228 81 1 81C0.447715 81 0 81.4477 0 82C0 82.5523 0.447715 83 1 83Z" fill="black" fill-opacity="0.16"/>
<path fill-rule="evenodd" clip-rule="evenodd" d="M17 83C17.5523 83 18 82.5523 18 82C18 81.4477 17.5523 81 17 81C16.4477 81 16 81.4477 16 82C16 82.5523 16.4477 83 17 83Z" fill="black" fill-opacity="0.16"/>
<path fill-rule="evenodd" clip-rule="evenodd" d="M33 83C33.5523 83 34 82.5523 34 82C34 81.4477 33.5523 81 33 81C32.4477 81 32 81.4477 32 82C32 82.5523 32.4477 83 33 83Z" fill="black" fill-opacity="0.16"/>
<path fill-rule="evenodd" clip-rule="evenodd" d="M49 83C49.5523 83 50 82.5523 50 82C50 81.4477 49.5523 81 49 81C48.4477 81 48 81.4477 48 82C48 82.5523 48.4477 83 49 83Z" fill="black" fill-opacity="0.16"/>
<path fill-rule="evenodd" clip-rule="evenodd" d="M67 83C67.5523 83 68 82.5523 68 82C68 81.4477 67.5523 81 67 81C66.4477 81 66 81.4477 66 82C66 82.5523 66.4477 83 67 83Z" fill="black" fill-opacity="0.16"/>
<path fill-rule="evenodd" clip-rule="evenodd" d="M83 83C83.5523 83 84 82.5523 84 82C84 81.4477 83.5523 81 83 81C82.4477 81 82 81.4477 82 82C82 82.5523 82.4477 83 83 83Z" fill="black" fill-opacity="0.16"/>
<path fill-rule="evenodd" clip-rule="evenodd" d="M99 83C99.5523 83 100 82.5523 100 82C100 81.4477 99.5523 81 99 81C98.4477 81 98 81.4477 98 82C98 82.5523 98.4477 83 99 83Z" fill="black" fill-opacity="0.16"/>
<path fill-rule="evenodd" clip-rule="evenodd" d="M115 83C115.552 83 116 82.5523 116 82C116 81.4477 115.552 81 115 81C114.448 81 114 81.4477 114 82C114 82.5523 114.448 83 115 83Z" fill="black" fill-opacity="0.16"/>
<path fill-rule="evenodd" clip-rule="evenodd" d="M132 83C132.552 83 133 82.5523 133 82C133 81.4477 132.552 81 132 81C131.448 81 131 81.4477 131 82C131 82.5523 131.448 83 132 83Z" fill="black" fill-opacity="0.16"/>
<path fill-rule="evenodd" clip-rule="evenodd" d="M149 83C149.552 83 150 82.5523 150 82C150 81.4477 149.552 81 149 81C148.448 81 148 81.4477 148 82C148 82.5523 148.448 83 149 83Z" fill="black" fill-opacity="0.16"/>
<path fill-rule="evenodd" clip-rule="evenodd" d="M1 67C1.55228 67 2 66.5523 2 66C2 65.4477 1.55228 65 1 65C0.447715 65 0 65.4477 0 66C0 66.5523 0.447715 67 1 67Z" fill="black" fill-opacity="0.16"/>
<path fill-rule="evenodd" clip-rule="evenodd" d="M17 67C17.5523 67 18 66.5523 18 66C18 65.4477 17.5523 65 17 65C16.4477 65 16 65.4477 16 66C16 66.5523 16.4477 67 17 67Z" fill="black" fill-opacity="0.16"/>
<path fill-rule="evenodd" clip-rule="evenodd" d="M33 67C33.5523 67 34 66.5523 34 66C34 65.4477 33.5523 65 33 65C32.4477 65 32 65.4477 32 66C32 66.5523 32.4477 67 33 67Z" fill="black" fill-opacity="0.16"/>
<path fill-rule="evenodd" clip-rule="evenodd" d="M49 67C49.5523 67 50 66.5523 50 66C50 65.4477 49.5523 65 49 65C48.4477 65 48 65.4477 48 66C48 66.5523 48.4477 67 49 67Z" fill="#39DB80"/>
<path fill-rule="evenodd" clip-rule="evenodd" d="M67 67C67.5523 67 68 66.5523 68 66C68 65.4477 67.5523 65 67 65C66.4477 65 66 65.4477 66 66C66 66.5523 66.4477 67 67 67Z" fill="#39DB80"/>
<path fill-rule="evenodd" clip-rule="evenodd" d="M83 67C83.5523 67 84 66.5523 84 66C84 65.4477 83.5523 65 83 65C82.4477 65 82 65.4477 82 66C82 66.5523 82.4477 67 83 67Z" fill="#39DB80"/>
<path fill-rule="evenodd" clip-rule="evenodd" d="M99 67C99.5523 67 100 66.5523 100 66C100 65.4477 99.5523 65 99 65C98.4477 65 98 65.4477 98 66C98 66.5523 98.4477 67 99 67Z" fill="#39DB80"/>
<path fill-rule="evenodd" clip-rule="evenodd" d="M115 67C115.552 67 116 66.5523 116 66C116 65.4477 115.552 65 115 65C114.448 65 114 65.4477 114 66C114 66.5523 114.448 67 115 67Z" fill="#39DB80"/>
<path fill-rule="evenodd" clip-rule="evenodd" d="M132 67C132.552 67 133 66.5523 133 66C133 65.4477 132.552 65 132 65C131.448 65 131 65.4477 131 66C131 66.5523 131.448 67 132 67Z" fill="#39DB80"/>
<path fill-rule="evenodd" clip-rule="evenodd" d="M149 67C149.552 67 150 66.5523 150 66C150 65.4477 149.552 65 149 65C148.448 65 148 65.4477 148 66C148 66.5523 148.448 67 149 67Z" fill="#39DB80"/>
<path fill-rule="evenodd" clip-rule="evenodd" d="M1 51C1.55228 51 2 50.5523 2 50C2 49.4477 1.55228 49 1 49C0.447715 49 0 49.4477 0 50C0 50.5523 0.447715 51 1 51Z" fill="#39DB80"/>
<path fill-rule="evenodd" clip-rule="evenodd" d="M17 51C17.5523 51 18 50.5523 18 50C18 49.4477 17.5523 49 17 49C16.4477 49 16 49.4477 16 50C16 50.5523 16.4477 51 17 51Z" fill="#39DB80"/>
<path fill-rule="evenodd" clip-rule="evenodd" d="M33 51C33.5523 51 34 50.5523 34 50C34 49.4477 33.5523 49 33 49C32.4477 49 32 49.4477 32 50C32 50.5523 32.4477 51 33 51Z" fill="#39DB80"/>
<path fill-rule="evenodd" clip-rule="evenodd" d="M49 51C49.5523 51 50 50.5523 50 50C50 49.4477 49.5523 49 49 49C48.4477 49 48 49.4477 48 50C48 50.5523 48.4477 51 49 51Z" fill="black" fill-opacity="0.16"/>
<path fill-rule="evenodd" clip-rule="evenodd" d="M67 51C67.5523 51 68 50.5523 68 50C68 49.4477 67.5523 49 67 49C66.4477 49 66 49.4477 66 50C66 50.5523 66.4477 51 67 51Z" fill="black" fill-opacity="0.16"/>
<path fill-rule="evenodd" clip-rule="evenodd" d="M83 51C83.5523 51 84 50.5523 84 50C84 49.4477 83.5523 49 83 49C82.4477 49 82 49.4477 82 50C82 50.5523 82.4477 51 83 51Z" fill="black" fill-opacity="0.16"/>
<path fill-rule="evenodd" clip-rule="evenodd" d="M99 51C99.5523 51 100 50.5523 100 50C100 49.4477 99.5523 49 99 49C98.4477 49 98 49.4477 98 50C98 50.5523 98.4477 51 99 51Z" fill="black" fill-opacity="0.16"/>
<path fill-rule="evenodd" clip-rule="evenodd" d="M115 51C115.552 51 116 50.5523 116 50C116 49.4477 115.552 49 115 49C114.448 49 114 49.4477 114 50C114 50.5523 114.448 51 115 51Z" fill="black" fill-opacity="0.16"/>
<path fill-rule="evenodd" clip-rule="evenodd" d="M132 51C132.552 51 133 50.5523 133 50C133 49.4477 132.552 49 132 49C131.448 49 131 49.4477 131 50C131 50.5523 131.448 51 132 51Z" fill="black" fill-opacity="0.16"/>
<path fill-rule="evenodd" clip-rule="evenodd" d="M149 51C149.552 51 150 50.5523 150 50C150 49.4477 149.552 49 149 49C148.448 49 148 49.4477 148 50C148 50.5523 148.448 51 149 51Z" fill="black" fill-opacity="0.16"/>
<path fill-rule="evenodd" clip-rule="evenodd" d="M1 34C1.55228 34 2 33.5523 2 33C2 32.4477 1.55228 32 1 32C0.447715 32 0 32.4477 0 33C0 33.5523 0.447715 34 1 34Z" fill="black" fill-opacity="0.16"/>
<path fill-rule="evenodd" clip-rule="evenodd" d="M17 34C17.5523 34 18 33.5523 18 33C18 32.4477 17.5523 32 17 32C16.4477 32 16 32.4477 16 33C16 33.5523 16.4477 34 17 34Z" fill="black" fill-opacity="0.16"/>
<path fill-rule="evenodd" clip-rule="evenodd" d="M33 34C33.5523 34 34 33.5523 34 33C34 32.4477 33.5523 32 33 32C32.4477 32 32 32.4477 32 33C32 33.5523 32.4477 34 33 34Z" fill="black" fill-opacity="0.16"/>
<path fill-rule="evenodd" clip-rule="evenodd" d="M49 34C49.5523 34 50 33.5523 50 33C50 32.4477 49.5523 32 49 32C48.4477 32 48 32.4477 48 33C48 33.5523 48.4477 34 49 34Z" fill="#39DB80"/>
<path fill-rule="evenodd" clip-rule="evenodd" d="M67 34C67.5523 34 68 33.5523 68 33C68 32.4477 67.5523 32 67 32C66.4477 32 66 32.4477 66 33C66 33.5523 66.4477 34 67 34Z" fill="#39DB80"/>
<path fill-rule="evenodd" clip-rule="evenodd" d="M83 34C83.5523 34 84 33.5523 84 33C84 32.4477 83.5523 32 83 32C82.4477 32 82 32.4477 82 33C82 33.5523 82.4477 34 83 34Z" fill="#39DB80"/>
<path fill-rule="evenodd" clip-rule="evenodd" d="M99 34C99.5523 34 100 33.5523 100 33C100 32.4477 99.5523 32 99 32C98.4477 32 98 32.4477 98 33C98 33.5523 98.4477 34 99 34Z" fill="#39DB80"/>
<path fill-rule="evenodd" clip-rule="evenodd" d="M115 34C115.552 34 116 33.5523 116 33C116 32.4477 115.552 32 115 32C114.448 32 114 32.4477 114 33C114 33.5523 114.448 34 115 34Z" fill="#39DB80"/>
<path fill-rule="evenodd" clip-rule="evenodd" d="M132 34C132.552 34 133 33.5523 133 33C133 32.4477 132.552 32 132 32C131.448 32 131 32.4477 131 33C131 33.5523 131.448 34 132 34Z" fill="#39DB80"/>
<path fill-rule="evenodd" clip-rule="evenodd" d="M149 34C149.552 34 150 33.5523 150 33C150 32.4477 149.552 32 149 32C148.448 32 148 32.4477 148 33C148 33.5523 148.448 34 149 34Z" fill="#39DB80"/>
<path fill-rule="evenodd" clip-rule="evenodd" d="M1 18C1.55228 18 2 17.5523 2 17C2 16.4477 1.55228 16 1 16C0.447715 16 0 16.4477 0 17C0 17.5523 0.447715 18 1 18Z" fill="#39DB80"/>
<path fill-rule="evenodd" clip-rule="evenodd" d="M17 18C17.5523 18 18 17.5523 18 17C18 16.4477 17.5523 16 17 16C16.4477 16 16 16.4477 16 17C16 17.5523 16.4477 18 17 18Z" fill="#39DB80"/>
<path fill-rule="evenodd" clip-rule="evenodd" d="M33 18C33.5523 18 34 17.5523 34 17C34 16.4477 33.5523 16 33 16C32.4477 16 32 16.4477 32 17C32 17.5523 32.4477 18 33 18Z" fill="#39DB80"/>
<path fill-rule="evenodd" clip-rule="evenodd" d="M49 18C49.5523 18 50 17.5523 50 17C50 16.4477 49.5523 16 49 16C48.4477 16 48 16.4477 48 17C48 17.5523 48.4477 18 49 18Z" fill="#39DB80"/>
<path fill-rule="evenodd" clip-rule="evenodd" d="M67 18C67.5523 18 68 17.5523 68 17C68 16.4477 67.5523 16 67 16C66.4477 16 66 16.4477 66 17C66 17.5523 66.4477 18 67 18Z" fill="#39DB80"/>
<path fill-rule="evenodd" clip-rule="evenodd" d="M83 18C83.5523 18 84 17.5523 84 17C84 16.4477 83.5523 16 83 16C82.4477 16 82 16.4477 82 17C82 17.5523 82.4477 18 83 18Z" fill="#39DB80"/>
<path fill-rule="evenodd" clip-rule="evenodd" d="M99 18C99.5523 18 100 17.5523 100 17C100 16.4477 99.5523 16 99 16C98.4477 16 98 16.4477 98 17C98 17.5523 98.4477 18 99 18Z" fill="#39DB80"/>
<path fill-rule="evenodd" clip-rule="evenodd" d="M115 18C115.552 18 116 17.5523 116 17C116 16.4477 115.552 16 115 16C114.448 16 114 16.4477 114 17C114 17.5523 114.448 18 115 18Z" fill="#39DB80"/>
<path fill-rule="evenodd" clip-rule="evenodd" d="M132 18C132.552 18 133 17.5523 133 17C133 16.4477 132.552 16 132 16C131.448 16 131 16.4477 131 17C131 17.5523 131.448 18 132 18Z" fill="#39DB80"/>
<path fill-rule="evenodd" clip-rule="evenodd" d="M149 18C149.552 18 150 17.5523 150 17C150 16.4477 149.552 16 149 16C148.448 16 148 16.4477 148 17C148 17.5523 148.448 18 149 18Z" fill="#39DB80"/>
<path fill-rule="evenodd" clip-rule="evenodd" d="M1 2C1.55228 2 2 1.55228 2 1C2 0.447715 1.55228 0 1 0C0.447715 0 0 0.447715 0 1C0 1.55228 0.447715 2 1 2Z" fill="#39DB80"/>
<path fill-rule="evenodd" clip-rule="evenodd" d="M17 2C17.5523 2 18 1.55228 18 1C18 0.447715 17.5523 0 17 0C16.4477 0 16 0.447715 16 1C16 1.55228 16.4477 2 17 2Z" fill="#39DB80"/>
<path fill-rule="evenodd" clip-rule="evenodd" d="M33 2C33.5523 2 34 1.55228 34 1C34 0.447715 33.5523 0 33 0C32.4477 0 32 0.447715 32 1C32 1.55228 32.4477 2 33 2Z" fill="#39DB80"/>
<path fill-rule="evenodd" clip-rule="evenodd" d="M49 2C49.5523 2 50 1.55228 50 1C50 0.447715 49.5523 0 49 0C48.4477 0 48 0.447715 48 1C48 1.55228 48.4477 2 49 2Z" fill="black" fill-opacity="0.16"/>
<path fill-rule="evenodd" clip-rule="evenodd" d="M67 2C67.5523 2 68 1.55228 68 1C68 0.447715 67.5523 0 67 0C66.4477 0 66 0.447715 66 1C66 1.55228 66.4477 2 67 2Z" fill="black" fill-opacity="0.16"/>
<path fill-rule="evenodd" clip-rule="evenodd" d="M83 2C83.5523 2 84 1.55228 84 1C84 0.447715 83.5523 0 83 0C82.4477 0 82 0.447715 82 1C82 1.55228 82.4477 2 83 2Z" fill="black" fill-opacity="0.16"/>
<path fill-rule="evenodd" clip-rule="evenodd" d="M99 2C99.5523 2 100 1.55228 100 1C100 0.447715 99.5523 0 99 0C98.4477 0 98 0.447715 98 1C98 1.55228 98.4477 2 99 2Z" fill="black" fill-opacity="0.16"/>
<path fill-rule="evenodd" clip-rule="evenodd" d="M115 2C115.552 2 116 1.55228 116 1C116 0.447715 115.552 0 115 0C114.448 0 114 0.447715 114 1C114 1.55228 114.448 2 115 2Z" fill="black" fill-opacity="0.16"/>
<path fill-rule="evenodd" clip-rule="evenodd" d="M132 2C132.552 2 133 1.55228 133 1C133 0.447715 132.552 0 132 0C131.448 0 131 0.447715 131 1C131 1.55228 131.448 2 132 2Z" fill="black" fill-opacity="0.16"/>
<path fill-rule="evenodd" clip-rule="evenodd" d="M149 2C149.552 2 150 1.55228 150 1C150 0.447715 149.552 0 149 0C148.448 0 148 0.447715 148 1C148 1.55228 148.448 2 149 2Z" fill="black" fill-opacity="0.16"/>
</svg>
