<svg width="22" height="28" viewBox="0 0 22 28" fill="none" xmlns="http://www.w3.org/2000/svg">
<path fill-rule="evenodd" clip-rule="evenodd" d="M1 0H0V1V22.9041V23.9041H1H3.3213V26.1897V27.1897H4.3213H14.2853C18.4808 27.1897 21.928 23.7951 21.928 19.6185V4.28567V3.28567H20.928H18.6067V1V0H17.6067H1ZM16.6067 3.28567V2H2V21.9041H3.3213V4.28567V3.28567H4.3213H16.6067ZM5.3213 5.28567V25.1897H14.2853C17.3967 25.1897 19.928 22.6702 19.928 19.6185V5.28567H5.3213ZM16.4996 11.857H8.74981V9.857H16.4996V11.857ZM8.74981 16.2379H16.4996V14.2379H8.74981V16.2379ZM14.5621 20.6181H8.74981V18.6181H14.5621V20.6181Z" fill="#39DB80"/>
</svg>
