<?xml version="1.0" encoding="UTF-8"?>
<svg width="21px" height="28px" viewBox="0 0 21 28" version="1.1" xmlns="http://www.w3.org/2000/svg" xmlns:xlink="http://www.w3.org/1999/xlink">
    <!-- Generator: Sketch 50 (54983) - http://www.bohemiancoding.com/sketch -->
    <title>lock</title>
    <desc>Created with Sketch.</desc>
    <defs></defs>
    <g id="Page-1" stroke="none" stroke-width="1" fill="none" fill-rule="evenodd">
        <g id="Home-—-Desktop" transform="translate(-194.000000, -2135.000000)">
            <g id="Simplicity-of-Investing-Copy" transform="translate(0.000000, 1865.000000)">
                <g id="Group" transform="translate(195.000000, 271.000000)">
                    <g id="Monthly-Rebalancing">
                        <g id="lock">
                            <path d="M14.5193289,26 L4.46748581,26 C2.00016153,26 4.95990561e-16,23.9755484 0,21.4782609 L0,10.173913 L18.9868147,10.173913 L18.9868147,21.4782609 C18.9868147,23.9755484 16.9866532,26 14.5193289,26 Z" id="Shape" stroke="#39DB80" stroke-width="2"></path>
                            <path d="M3.90905009,10.173913 L3.90905009,5.65217391 C3.90905009,2.53056446 6.409252,5.02013889e-16 9.49340736,0 C12.5775627,1.25503472e-16 15.0777646,2.53056446 15.0777646,5.65217391 L15.0777646,10.173913" id="Shape" stroke="#39DB80" stroke-width="2"></path>
                            <path d="M9.49340736,20.9130435 C9.15038201,20.9166278 8.84887919,20.683678 8.76185655,20.3478261 L7.86277503,17.3069565 C7.75869424,16.8082607 7.88177347,16.2886309 8.19794275,15.8919076 C8.51411203,15.4951843 8.98982847,15.2634565 9.49340736,15.2608696 C9.9933859,15.2644788 10.4656405,15.4939279 10.7811346,15.8865233 C11.0966287,16.2791187 11.222384,16.7938226 11.1240397,17.29 L10.2249582,20.3478261 C10.1379355,20.683678 9.8364327,20.9166278 9.49340736,20.9130435 Z" id="Shape" fill="#39DB80" fill-rule="nonzero"></path>
                        </g>
                    </g>
                </g>
            </g>
        </g>
    </g>
</svg>